<svg xmlns="http://www.w3.org/2000/svg" width="18.841" height="24.73" viewBox="0 0 18.841 24.73"><g transform="translate(0 0)"><path d="M170.562,173.744,171.2,189.1v4.278a.634.634,0,0,0,.634.634h9.693a.634.634,0,0,0,.634-.634v-4.407a.673.673,0,0,1,.093-.342l.7-1.194a4.365,4.365,0,0,0,.6-2.2V173.8Z" transform="translate(-165.022 -169.282)" fill="#ffc003"/><path d="M174.753,273.869l.36,8.607h4.629a3.092,3.092,0,0,0,3.1-3.054c0-.012,0-2.691,0-2.691s0-.021,0-.031a2.864,2.864,0,0,0-2.872-2.83h-5.218Z" transform="translate(-168.955 -263.249)" fill="#ffc003"/><path d="M170.714,177.324a2.969,2.969,0,0,0,2.281-.19,2.972,2.972,0,0,0,3.553.536,2.971,2.971,0,0,0,3.5.477,2.971,2.971,0,0,0,3.509.465V173.8l-12.994-.06Z" transform="translate(-165.024 -169.283)" fill="#ffc003"/><path d="M162.93,106.4a1.748,1.748,0,1,1-3.5,0v-3.458a1.748,1.748,0,1,1,3.5,0Z" transform="translate(-154.578 -101.196)" fill="#ffc003"/><path d="M219.779,115.586a1.748,1.748,0,1,1-3.5,0v-3.458a1.748,1.748,0,1,1,3.5,0Z" transform="translate(-207.931 -109.814)" fill="#ffc003"/><g transform="translate(4.856)"><path d="M160.745,106.4v-3.458a1.75,1.75,0,0,1,1.094-1.622,1.749,1.749,0,0,0-2.4,1.622V106.4a1.748,1.748,0,0,0,2.4,1.621A1.748,1.748,0,0,1,160.745,106.4Z" transform="translate(-159.435 -101.196)" fill="#ffc003"/><path d="M217.593,115.586v-3.458a1.75,1.75,0,0,1,1.094-1.622,1.749,1.749,0,0,0-2.4,1.622v3.458a1.748,1.748,0,0,0,2.4,1.621A1.748,1.748,0,0,1,217.593,115.586Z" transform="translate(-212.787 -109.814)" fill="#ffc003"/><path d="M181.346,364.8l-2.925-3.313.159,3.81v4.278a.634.634,0,0,0,.634.634h2.136Z" transform="translate(-177.253 -345.476)" fill="#ffc003"/></g><path d="M91.222,174.386l1.161,1.4a3.285,3.285,0,0,1,.758,2.1v2.656a3.68,3.68,0,0,1-3.68,3.68H86.667v-.11L81.806,178.6a5.279,5.279,0,0,1-.8-5.786l1.327-2.753a2.686,2.686,0,0,1,3.689-1.2l5.535,2.972a1.344,1.344,0,0,1,0,2.368Z" transform="translate(-80.484 -164.402)" fill="#ffc003"/><path d="M92.466,169.155a1.807,1.807,0,0,0-.687-.649L86,165.473a.592.592,0,0,0-.107-.044l-.023.029a.6.6,0,0,1-.584.216,2.685,2.685,0,0,0-2.948,1.466l-1.327,2.753a5.279,5.279,0,0,0,.8,5.786l4.861,5.507v.11h2.766v-.119a1,1,0,0,0-.25-.661L84.577,175.3a5.279,5.279,0,0,1-.8-5.786l1.327-2.753a2.65,2.65,0,0,1,.185-.323.317.317,0,0,1,.413-.107l5.639,2.989a.883.883,0,0,1,0,1.555l-.726.39a3.616,3.616,0,0,1-3.321.051l-1.678-.837a.461.461,0,0,0-.625.22.474.474,0,0,0,.23.615l1.661.828a4.54,4.54,0,0,0,4.169-.064l.726-.39a1.805,1.805,0,0,0,.686-2.531Z" transform="translate(-80.485 -161.478)" fill="#ffc003"/><g transform="translate(11.849 1.044)"><path d="M276.628,123.381a1.748,1.748,0,1,1-3.5,0v-3.458a1.748,1.748,0,1,1,3.5,0Z" transform="translate(-273.132 -118.174)" fill="#ffc003"/><path d="M333.469,129.443v3.345a1.748,1.748,0,0,1-3.5,0v-3.345a1.748,1.748,0,1,1,3.5,0Z" transform="translate(-326.476 -127.108)" fill="#ffc003"/></g><g transform="translate(11.849 1.044)"><path d="M274.442,123.381v-3.458a1.75,1.75,0,0,1,1.094-1.622,1.749,1.749,0,0,0-2.4,1.622v3.458a1.749,1.749,0,0,0,2.4,1.621A1.749,1.749,0,0,1,274.442,123.381Z" transform="translate(-273.132 -118.174)" fill="#ffc003"/><path d="M331.282,132.788v-3.345a1.75,1.75,0,0,1,1.094-1.622,1.75,1.75,0,0,0-2.4,1.622v3.345a1.75,1.75,0,0,0,2.4,1.621A1.749,1.749,0,0,1,331.282,132.788Z" transform="translate(-326.476 -127.108)" fill="#ffc003"/></g></g></svg>