<svg xmlns="http://www.w3.org/2000/svg" width="41" height="41" viewBox="0 0 41 41">
  <g id="Adhikar_Icon" data-name="Adhikar Icon" transform="translate(-19 -204)">
    <circle id="Ellipse_495" data-name="Ellipse 495" cx="20.5" cy="20.5" r="20.5" transform="translate(19 204)" fill="#ffc003"/>
    <g id="empowerment" transform="translate(22.779 202.288)">
      <g id="Group_15031" data-name="Group 15031" transform="translate(6.685 10.173)">
        <g id="XMLID_223_">
          <g id="Group_15028" data-name="Group 15028">
            <path id="Path_26579" data-name="Path 26579" d="M170.562,173.744,171.2,189.1v4.278a.634.634,0,0,0,.634.634h9.693a.634.634,0,0,0,.634-.634v-4.407a.673.673,0,0,1,.093-.342l.7-1.194a4.365,4.365,0,0,0,.6-2.2V173.8Z" transform="translate(-165.022 -169.282)" fill="#fff"/>
            <path id="Path_26580" data-name="Path 26580" d="M174.753,273.869l.36,8.607h4.629a3.092,3.092,0,0,0,3.1-3.054c0-.012,0-2.691,0-2.691s0-.021,0-.031a2.864,2.864,0,0,0-2.872-2.83h-5.218Z" transform="translate(-168.955 -263.249)" fill="#fff"/>
            <path id="Path_26581" data-name="Path 26581" d="M170.714,177.324a2.969,2.969,0,0,0,2.281-.19,2.972,2.972,0,0,0,3.553.536,2.971,2.971,0,0,0,3.5.477,2.971,2.971,0,0,0,3.509.465V173.8l-12.994-.06Z" transform="translate(-165.024 -169.283)" fill="#fff"/>
            <path id="Path_26582" data-name="Path 26582" d="M162.93,106.4a1.748,1.748,0,1,1-3.5,0v-3.458a1.748,1.748,0,1,1,3.5,0Z" transform="translate(-154.578 -101.196)" fill="#fff"/>
            <path id="Path_26583" data-name="Path 26583" d="M219.779,115.586a1.748,1.748,0,1,1-3.5,0v-3.458a1.748,1.748,0,1,1,3.5,0Z" transform="translate(-207.931 -109.814)" fill="#fff"/>
            <g id="Group_15027" data-name="Group 15027" transform="translate(4.856)">
              <path id="Path_26584" data-name="Path 26584" d="M160.745,106.4v-3.458a1.75,1.75,0,0,1,1.094-1.622,1.749,1.749,0,0,0-2.4,1.622V106.4a1.748,1.748,0,0,0,2.4,1.621A1.748,1.748,0,0,1,160.745,106.4Z" transform="translate(-159.435 -101.196)" fill="#fff"/>
              <path id="Path_26585" data-name="Path 26585" d="M217.593,115.586v-3.458a1.75,1.75,0,0,1,1.094-1.622,1.749,1.749,0,0,0-2.4,1.622v3.458a1.748,1.748,0,0,0,2.4,1.621A1.748,1.748,0,0,1,217.593,115.586Z" transform="translate(-212.787 -109.814)" fill="#fff"/>
              <path id="Path_26586" data-name="Path 26586" d="M181.346,364.8l-2.925-3.313.159,3.81v4.278a.634.634,0,0,0,.634.634h2.136Z" transform="translate(-177.253 -345.476)" fill="#fff"/>
            </g>
            <path id="Path_26587" data-name="Path 26587" d="M91.222,174.386l1.161,1.4a3.285,3.285,0,0,1,.758,2.1v2.656a3.68,3.68,0,0,1-3.68,3.68H86.667v-.11L81.806,178.6a5.279,5.279,0,0,1-.8-5.786l1.327-2.753a2.686,2.686,0,0,1,3.689-1.2l5.535,2.972a1.344,1.344,0,0,1,0,2.368Z" transform="translate(-80.484 -164.402)" fill="#fffcf5"/>
          </g>
          <path id="Path_26588" data-name="Path 26588" d="M92.466,169.155a1.807,1.807,0,0,0-.687-.649L86,165.473a.592.592,0,0,0-.107-.044l-.023.029a.6.6,0,0,1-.584.216,2.685,2.685,0,0,0-2.948,1.466l-1.327,2.753a5.279,5.279,0,0,0,.8,5.786l4.861,5.507v.11h2.766v-.119a1,1,0,0,0-.25-.661L84.577,175.3a5.279,5.279,0,0,1-.8-5.786l1.327-2.753a2.65,2.65,0,0,1,.185-.323.317.317,0,0,1,.413-.107l5.639,2.989a.883.883,0,0,1,0,1.555l-.726.39a3.616,3.616,0,0,1-3.321.051l-1.678-.837a.461.461,0,0,0-.625.22.474.474,0,0,0,.23.615l1.661.828a4.54,4.54,0,0,0,4.169-.064l.726-.39a1.805,1.805,0,0,0,.686-2.531Z" transform="translate(-80.485 -161.478)" fill="#fff"/>
        </g>
        <g id="XMLID_222_" transform="translate(11.849 1.044)">
          <g id="Group_15029" data-name="Group 15029">
            <path id="Path_26589" data-name="Path 26589" d="M276.628,123.381a1.748,1.748,0,1,1-3.5,0v-3.458a1.748,1.748,0,1,1,3.5,0Z" transform="translate(-273.132 -118.174)" fill="#fff"/>
            <path id="Path_26590" data-name="Path 26590" d="M333.469,129.443v3.345a1.748,1.748,0,0,1-3.5,0v-3.345a1.748,1.748,0,1,1,3.5,0Z" transform="translate(-326.476 -127.108)" fill="#fff"/>
          </g>
        </g>
        <g id="XMLID_224_" transform="translate(11.849 1.044)">
          <g id="Group_15030" data-name="Group 15030">
            <path id="Path_26591" data-name="Path 26591" d="M274.442,123.381v-3.458a1.75,1.75,0,0,1,1.094-1.622,1.749,1.749,0,0,0-2.4,1.622v3.458a1.749,1.749,0,0,0,2.4,1.621A1.749,1.749,0,0,1,274.442,123.381Z" transform="translate(-273.132 -118.174)" fill="#fff"/>
            <path id="Path_26592" data-name="Path 26592" d="M331.282,132.788v-3.345a1.75,1.75,0,0,1,1.094-1.622,1.75,1.75,0,0,0-2.4,1.622v3.345a1.75,1.75,0,0,0,2.4,1.621A1.749,1.749,0,0,1,331.282,132.788Z" transform="translate(-326.476 -127.108)" fill="#fff"/>
          </g>
        </g>
      </g>
      <path id="Path_26593" data-name="Path 26593" d="M148.217,384.722a.461.461,0,0,0-.692.611l1.49,1.688v4.848a.461.461,0,0,0,.923,0v-5.022a.462.462,0,0,0-.115-.305Z" transform="translate(-136.609 -356.965)" fill="#4a9d14"/>
      <path id="Path_26594" data-name="Path 26594" d="M75.078,216.728a4.808,4.808,0,0,1-.728-5.281l.623-1.293c.111-.229,1.022-2.2.792-2.315s-.983.427-1.094.656l-1.153,2.551a5.729,5.729,0,0,0,.867,6.292l1.927,2.184a15.476,15.476,0,0,0,1.421,1.567,1.427,1.427,0,0,0,.5-.281c.191-.169-1.06-1.706-1.229-1.9Z" transform="translate(-66.725 -192.659)" fill="#4a9d14"/>
      <path id="Path_26595" data-name="Path 26595" d="M121.769,95.326a2.2,2.2,0,0,0-1.53.618,2.206,2.206,0,0,0-3.521-.561,2.207,2.207,0,0,0-3.492-.521,2.209,2.209,0,0,0-4.156,1.045v1.934a3.132,3.132,0,0,0-2.73,1.383.461.461,0,0,0,.765.516A2.215,2.215,0,0,1,110,99.026L115.534,102a.883.883,0,0,1,0,1.555l-.726.39a3.615,3.615,0,0,1-3.321.051l-1.678-.837a.461.461,0,0,0-.412.826l1.678.837a4.54,4.54,0,0,0,4.169-.064l.055-.03.92,1.108a2.831,2.831,0,0,1,.652,1.805V110.3a.461.461,0,1,0,.923,0v-2.656a3.756,3.756,0,0,0-.865-2.395l-.807-.971a1.8,1.8,0,0,0,.624-2.269,2.2,2.2,0,0,0,3.1-.043,2.206,2.206,0,0,0,2.906.9v1.1a.461.461,0,1,0,.923,0V102a2.2,2.2,0,0,0,.307-1.122V97.536A2.212,2.212,0,0,0,121.769,95.326Zm-11.776,2.692V95.906a1.287,1.287,0,1,1,2.574,0v3.452l-2.133-1.145A3.207,3.207,0,0,0,109.993,98.018Zm3.5,1.835v-3.42a1.287,1.287,0,1,1,2.574,0v3.975a1.287,1.287,0,0,1-.215.711Zm4.784,1.842a1.288,1.288,0,0,1-1.287-1.287V96.95a1.287,1.287,0,0,1,2.574,0v3.458A1.288,1.288,0,0,1,118.273,101.7Zm3.5.472a1.288,1.288,0,0,1-1.287-1.287V97.536a1.287,1.287,0,0,1,2.574,0v3.345A1.288,1.288,0,0,1,121.769,102.168Z" transform="translate(-97.991 -83.984)" fill="#4a9d14"/>
      <path id="Path_26596" data-name="Path 26596" d="M353.387,282.867c-.242-1.019-.262,2.382-.262,2.636v4.181a3.9,3.9,0,0,1-.535,1.971l-.7,1.194a1.139,1.139,0,0,0-.156.575v5.041a.461.461,0,0,0,.923,0v-5.041a.216.216,0,0,1,.03-.109l.7-1.194a4.827,4.827,0,0,0,.661-2.437v-6.473C354.048,282.956,353.629,283.886,353.387,282.867Z" transform="translate(-328.368 -263.562)" fill="#4a9d14"/>
    </g>
  </g>
</svg>
