<svg width="19" height="20" viewBox="0 0 19 20" fill="none" xmlns="http://www.w3.org/2000/svg">
<rect width="19" height="19.5195" fill="none"/>
<path fill-rule="evenodd" clip-rule="evenodd" d="M6.10932 11.2402L5.38797 10.4991C4.99047 10.0907 4.99047 9.42865 5.38797 9.02028L6.10061 8.28815L6.10061 8.28723L9.9001 4.38384L11.1202 3.13023C11.1251 3.12515 11.1301 3.12013 11.135 3.11518L11.1549 3.09471C11.3 2.95463 11.4392 2.87036 11.5835 2.82541C11.7395 2.77683 11.8991 2.77683 12.0551 2.82541C12.2111 2.87399 12.361 2.96848 12.5184 3.13023L12.5596 3.17257C12.7171 3.33431 12.8091 3.48829 12.8564 3.64857C12.9036 3.80885 12.9036 3.97277 12.8564 4.13305C12.8126 4.28136 12.7306 4.42428 12.5938 4.57295L7.54627 9.75969L12.5944 14.9459C12.7306 15.095 12.8126 15.2379 12.8564 15.3862C12.9036 15.5464 12.9036 15.7104 12.8564 15.8706C12.8091 16.0309 12.7171 16.1849 12.5596 16.3466L12.5184 16.389C12.361 16.5507 12.2111 16.6452 12.0551 16.6938C11.8991 16.7424 11.7395 16.7424 11.5835 16.6938C11.4392 16.6489 11.3001 16.5646 11.1554 16.4242L6.10933 11.2411L6.10932 11.2402Z" fill="#fff"/>
</svg>
