<svg xmlns="http://www.w3.org/2000/svg" width="16.328" height="16.328" viewBox="0 0 16.328 16.328"><rect width="16" height="16" transform="translate(0.328 0.328)" fill="none"/><path d="M15.322,14.287H10.214a2.043,2.043,0,0,1-4.086,0H1.02A.981.981,0,0,1,.1,13.573,1.089,1.089,0,0,1,.407,12.45,4.107,4.107,0,0,0,2.042,9.184V6.123a6.129,6.129,0,0,1,12.259,0V9.184a4.107,4.107,0,0,0,1.634,3.266.966.966,0,0,1,.306,1.123A.981.981,0,0,1,15.322,14.287Z" transform="translate(-0.063)" fill="#fff" fill-rule="evenodd"/></svg>