<svg width="16" height="15" viewBox="0 0 16 15" fill="none" xmlns="http://www.w3.org/2000/svg">
<path d="M13.9993 2.00002H11.9993V0.666687H10.666V4.66669H11.9993V3.33335H13.9993V13.3334H1.99935V3.33335H3.33268V2.00002H1.99935C1.26335 2.00002 0.666016 2.59669 0.666016 3.33335V13.3334C0.666016 14.0694 1.26335 14.6667 1.99935 14.6667H13.9993C14.7353 14.6667 15.3327 14.0694 15.3327 13.3334V3.33335C15.3327 2.59669 14.7353 2.00002 13.9993 2.00002Z" fill="#fff"/>
<path d="M5.33333 3.33335H10V2.00002H5.33333V0.666687H4V4.66669H5.33333V3.33335Z" fill="#fff"/>
<rect x="3.33203" y="6" width="2.66667" height="2.66667" fill="#fff"/>
<rect x="6.66602" y="6" width="2.66667" height="2.66667" fill="#fff"/>
<rect x="10" y="6" width="2.66667" height="2.66667" fill="#fff"/>
<rect x="3.33203" y="9.33337" width="2.66667" height="2.66667" fill="#fff"/>
<rect x="6.66602" y="9.33337" width="2.66667" height="2.66667" fill="#fff"/>
</svg>
