<svg xmlns="http://www.w3.org/2000/svg" width="22" height="18.364" viewBox="0 0 22 18.364"><g transform="translate(-0.5 -3.5)"><path d="M21.5,19.045a1.818,1.818,0,0,1-1.818,1.818H3.318A1.818,1.818,0,0,1,1.5,19.045v-10A1.818,1.818,0,0,1,3.318,7.227H6.955L8.773,4.5h5.455l1.818,2.727h3.636A1.818,1.818,0,0,1,21.5,9.045Z" fill="none" stroke="#fff" stroke-linecap="round" stroke-linejoin="round" stroke-width="2"/><path d="M20.926,17.963A4.463,4.463,0,1,1,16.463,13.5a4.463,4.463,0,0,1,4.463,4.463Z" transform="translate(-4.963 -4.537)" fill="none" stroke="#fff" stroke-linecap="round" stroke-linejoin="round" stroke-width="2"/></g></svg>