<svg xmlns="http://www.w3.org/2000/svg" width="30" height="24" viewBox="0 0 30 24">
  <g id="chat-bubbles-with-ellipsis_1_" data-name="chat-bubbles-with-ellipsis (1)" transform="translate(0 -3.24)">
    <path id="Path_43460" data-name="Path 43460" d="M27.981,9.67h-.816v8.973A2.429,2.429,0,0,1,24.72,21.3H8.743v.427a2.878,2.878,0,0,0,2.848,2.482H23.806l4.673,2.748L27.8,24.212h.179a2.2,2.2,0,0,0,2.092-2.482V11.8A1.923,1.923,0,0,0,27.981,9.67Z" transform="translate(-0.073 0.28)" fill="#ffc003"/>
    <path id="Path_43461" data-name="Path 43461" d="M22.069,3.24H3.512C1.879,3.24,0,4.725,0,6.156V17.667c0,1.318,1.592,2.27,3.119,2.416l-.994,3.861L8.493,20.11H22.069c1.633,0,3.139-1.013,3.139-2.443V6.156A3.236,3.236,0,0,0,22.069,3.24ZM6.343,12.957a1.716,1.716,0,1,1,1.676-1.716A1.7,1.7,0,0,1,6.343,12.957Zm6.261,0a1.716,1.716,0,1,1,1.676-1.716A1.7,1.7,0,0,1,12.6,12.957Zm6.262,0a1.716,1.716,0,1,1,1.676-1.716A1.7,1.7,0,0,1,18.867,12.957Z" transform="translate(0 0)" fill="#ffc003"/>
  </g>
</svg>
