<svg xmlns="http://www.w3.org/2000/svg" width="24.444" height="22" viewBox="0 0 24.444 22">
  <g id="Icon_material-photo-camera" data-name="Icon material-photo-camera" transform="translate(-3 -3)">
    <path id="Path_212" data-name="Path 212" d="M22.8,18A4.8,4.8,0,1,1,18,13.2,4.8,4.8,0,0,1,22.8,18Z" transform="translate(-2.778 -2.931)" fill="#ffc003"/>
    <path id="Path_213" data-name="Path 213" d="M11.556,3,9.319,5.444H5.444A2.452,2.452,0,0,0,3,7.889V22.556A2.452,2.452,0,0,0,5.444,25H25a2.452,2.452,0,0,0,2.444-2.444V7.889A2.452,2.452,0,0,0,25,5.444H21.126L18.889,3Zm3.667,18.333a6.111,6.111,0,1,1,6.111-6.111A6.113,6.113,0,0,1,15.222,21.333Z" fill="#ffc003"/>
  </g>
</svg>
