<svg width="30" height="30" viewBox="0 0 30 30" fill="none" xmlns="http://www.w3.org/2000/svg">
<path d="M17.082 23.7323V23.7308V19.58C17.082 19.2633 16.9562 18.9595 16.7322 18.7355C16.5082 18.5115 16.2044 18.3857 15.8876 18.3857H13.11C12.7933 18.3857 12.4895 18.5115 12.2655 18.7355C12.0415 18.9595 11.9156 19.2633 11.9156 19.58V23.7338C11.9156 23.7852 11.8953 23.8345 11.8591 23.8709C11.8229 23.9073 11.7738 23.9279 11.7225 23.9282C11.7224 23.9282 11.7223 23.9282 11.7222 23.9282L6.86139 23.9408C6.86125 23.9408 6.86112 23.9408 6.86099 23.9408C6.80958 23.9407 6.76029 23.9202 6.72393 23.8838C6.68748 23.8474 6.667 23.7979 6.667 23.7464V16.8696L14.4831 10.4321C14.4881 10.4283 14.4943 10.4263 14.5006 10.4263C14.5069 10.4263 14.513 10.4284 14.518 10.4321C14.5183 10.4323 14.5185 10.4325 14.5188 10.4327L22.3324 16.8649V23.7464C22.3324 23.7979 22.3119 23.8474 22.2754 23.8838C22.2391 23.9202 22.1899 23.9407 22.1385 23.9408C22.1383 23.9408 22.1381 23.9408 22.138 23.9408L17.2778 23.9273H17.2764C17.2508 23.9273 17.2255 23.9223 17.2019 23.9125C17.1782 23.9027 17.1568 23.8883 17.1387 23.8702C17.1207 23.8521 17.1063 23.8306 17.0966 23.8069C17.0869 23.7833 17.0819 23.7579 17.082 23.7323ZM26.4897 14.9085L26.4923 14.9106C26.4944 14.9124 26.4962 14.9145 26.4975 14.9169L26.9377 14.6798L26.4975 14.9169C26.4988 14.9193 26.4996 14.922 26.4999 14.9247C26.5002 14.9274 26.4999 14.9302 26.4991 14.9328L26.9777 15.0777L26.4991 14.9328C26.4983 14.9354 26.497 14.9379 26.4953 14.94L25.3895 16.2843C25.3877 16.2864 25.3856 16.2881 25.3832 16.2894C25.3808 16.2907 25.3781 16.2915 25.3754 16.2918C25.3727 16.292 25.3699 16.2917 25.3673 16.2909C25.3647 16.2901 25.3623 16.2888 25.3602 16.2871L25.3593 16.2863L15.1504 7.87812L15.1505 7.8781L15.1463 7.87479C14.9634 7.72733 14.7355 7.64692 14.5006 7.64692C14.2656 7.64692 14.0377 7.72733 13.8548 7.87479L13.8547 7.87477L13.8507 7.87813L3.64225 16.2863L3.64173 16.2868C3.63962 16.2885 3.63719 16.2898 3.63458 16.2906C3.63196 16.2914 3.62922 16.2917 3.62649 16.2914C3.62378 16.2912 3.62113 16.2904 3.61872 16.2891C3.6163 16.2878 3.61417 16.2861 3.61243 16.2839L3.6124 16.2839L2.50571 14.9385L2.50478 14.9374C2.50303 14.9353 2.50172 14.9329 2.50092 14.9302C2.50012 14.9276 2.49984 14.9249 2.50009 14.9222C2.50035 14.9194 2.50114 14.9168 2.50242 14.9144C2.50367 14.912 2.50538 14.9099 2.50743 14.9082C2.50747 14.9082 2.50751 14.9081 2.50755 14.9081L13.4924 5.86131C13.4925 5.86127 13.4925 5.86122 13.4926 5.86118C13.7759 5.62807 14.1315 5.50061 14.4984 5.50061C14.8654 5.50061 15.221 5.62811 15.5044 5.86131L15.5044 5.86134L19.3899 9.05814L20.2076 9.73087V8.67203V5.52079C20.2076 5.51528 20.2098 5.50999 20.2137 5.50609C20.2176 5.50219 20.2229 5.5 20.2284 5.5H22.6588C22.6643 5.5 22.6696 5.50219 22.6735 5.50609C22.6774 5.50999 22.6796 5.51528 22.6796 5.52079V11.532V11.7679L22.8615 11.9179L26.4897 14.9085ZM14.8326 8.26407L25.0414 16.6723L14.1685 8.26407C14.2626 8.18826 14.3798 8.14692 14.5006 8.14692C14.6214 8.14692 14.7385 8.18826 14.8326 8.26407Z" stroke="black"/>
</svg>
