<svg width="30" height="30" viewBox="0 0 30 30" fill="none" xmlns="http://www.w3.org/2000/svg">
<path d="M14.1685 10.0434L6.167 16.6337V23.7464C6.167 23.9306 6.24016 24.1072 6.37038 24.2374C6.5006 24.3676 6.67722 24.4408 6.86139 24.4408L11.7247 24.4282C11.9083 24.4273 12.084 24.3537 12.2135 24.2236C12.343 24.0935 12.4156 23.9174 12.4156 23.7338V19.58C12.4156 19.3959 12.4888 19.2193 12.619 19.089C12.7493 18.9588 12.9259 18.8857 13.11 18.8857H15.8876C16.0718 18.8857 16.2484 18.9588 16.3786 19.089C16.5088 19.2193 16.582 19.3959 16.582 19.58V23.7308C16.5817 23.8221 16.5995 23.9127 16.6342 23.9972C16.669 24.0817 16.7201 24.1585 16.7846 24.2232C16.8491 24.2879 16.9258 24.3392 17.0101 24.3743C17.0945 24.4093 17.185 24.4273 17.2764 24.4273L22.138 24.4408C22.3222 24.4408 22.4988 24.3676 22.629 24.2374C22.7592 24.1072 22.8324 23.9306 22.8324 23.7464V16.6289L14.8326 10.0434C14.7385 9.96764 14.6214 9.9263 14.5006 9.9263C14.3798 9.9263 14.2626 9.96764 14.1685 10.0434ZM26.8078 14.5227L23.1796 11.532V5.52079C23.1796 5.38267 23.1247 5.2502 23.027 5.15254C22.9294 5.05487 22.7969 5 22.6588 5H20.2284C20.0903 5 19.9578 5.05487 19.8602 5.15254C19.7625 5.2502 19.7076 5.38267 19.7076 5.52079V8.67203L15.8221 5.47522C15.4492 5.16838 14.9813 5.00061 14.4984 5.00061C14.0155 5.00061 13.5476 5.16838 13.1747 5.47522L2.189 14.5227C2.13627 14.5663 2.09264 14.6198 2.06061 14.6803C2.02857 14.7408 2.00877 14.8069 2.00232 14.875C1.99587 14.9432 2.00291 15.0119 2.02302 15.0773C2.04314 15.1427 2.07595 15.2034 2.11956 15.2562L3.22625 16.6015C3.26975 16.6544 3.32326 16.6982 3.3837 16.7304C3.44415 16.7626 3.51035 16.7826 3.57852 16.7891C3.64669 16.7957 3.71548 16.7888 3.78096 16.7687C3.84645 16.7487 3.90733 16.7159 3.96013 16.6723L14.1685 8.26407C14.2626 8.18826 14.3798 8.14692 14.5006 8.14692C14.6214 8.14692 14.7385 8.18826 14.8326 8.26407L25.0414 16.6723C25.0941 16.7159 25.1549 16.7487 25.2203 16.7688C25.2857 16.7889 25.3544 16.796 25.4225 16.7895C25.4906 16.7831 25.5568 16.7633 25.6173 16.7312C25.6777 16.6992 25.7313 16.6556 25.7749 16.6028L26.8815 15.2575C26.9251 15.2044 26.9578 15.1433 26.9777 15.0777C26.9975 15.012 27.0043 14.943 26.9974 14.8747C26.9905 14.8065 26.9703 14.7402 26.9377 14.6798C26.9052 14.6194 26.861 14.566 26.8078 14.5227Z" fill="black"/>
</svg>
