<svg xmlns="http://www.w3.org/2000/svg" width="15.333" height="15.362" viewBox="0 0 15.333 15.362"><path d="M12.665,4.436a3.67,3.67,0,0,1,2.9,2.9M12.665,1.5A6.607,6.607,0,0,1,18.5,7.328m-.734,5.858v2.2a1.468,1.468,0,0,1-1.6,1.468A14.527,14.527,0,0,1,9.832,14.6a15.267,15.267,0,0,1-1.974-1.51A13.743,13.743,0,0,1,5.427,10.2,14.527,14.527,0,0,1,3.174,3.834a1.468,1.468,0,0,1,1.461-1.6h2.2A1.468,1.468,0,0,1,8.3,3.5a9.425,9.425,0,0,0,.514,2.063,1.468,1.468,0,0,1-.33,1.549l-.932.932a11.745,11.745,0,0,0,4.4,4.4l.932-.932a1.468,1.468,0,0,1,1.549-.33A9.425,9.425,0,0,0,16.5,11.7,1.468,1.468,0,0,1,17.767,13.186Z" transform="translate(-3.168 -1.5)" fill="#fff"/></svg>