<svg xmlns="http://www.w3.org/2000/svg" width="22.807" height="18" viewBox="0 0 22.807 18"><g transform="translate(0 -3.24)"><path d="M23.463,9.67h-.625v6.866a1.859,1.859,0,0,1-1.87,2.036H8.743V18.9a2.2,2.2,0,0,0,2.179,1.9h9.347l3.576,2.1-.519-2.1h.137a1.687,1.687,0,0,0,1.6-1.9V11.3A1.471,1.471,0,0,0,23.463,9.67Z" transform="translate(-2.257 -1.66)" fill="#fff"/><path d="M16.886,3.24H2.687C1.438,3.24,0,4.35,0,5.42v8.606c0,.985,1.218,1.7,2.387,1.806l-.76,2.887L6.5,15.852H16.886c1.249,0,2.4-.757,2.4-1.826V5.42A2.452,2.452,0,0,0,16.886,3.24ZM4.853,10.5A1.283,1.283,0,1,1,6.136,9.222,1.283,1.283,0,0,1,4.853,10.5Zm4.791,0a1.283,1.283,0,1,1,1.283-1.283A1.283,1.283,0,0,1,9.644,10.5Zm4.792,0a1.283,1.283,0,1,1,1.283-1.283A1.283,1.283,0,0,1,14.436,10.5Z" transform="translate(0 0)" fill="#fff"/></g></svg>