<svg xmlns="http://www.w3.org/2000/svg" width="26.79" height="26.79" viewBox="0 0 26.79 26.79">
  <path id="Icon_metro-qrcode" data-name="Icon metro-qrcode" d="M10.942,3.6h-6.7v6.7h6.7Zm1.674-1.674V11.974H2.571V1.928Zm-6.7,3.349H9.268V8.625H5.919ZM27.686,3.6h-6.7v6.7h6.7V3.6ZM29.36,1.928V11.974H19.314V1.928H29.36Zm-6.7,3.349h3.349V8.625H22.663ZM10.942,20.346h-6.7v6.7h6.7Zm1.674-1.674V28.718H2.571V18.671Zm-6.7,3.349H9.268v3.349H5.919ZM14.291,1.928h1.674V3.6H14.291ZM15.965,3.6H17.64V5.277H15.965ZM14.291,5.277h1.674V6.951H14.291Zm1.674,1.674H17.64V8.625H15.965ZM14.291,8.625h1.674V10.3H14.291ZM15.965,10.3H17.64v1.674H15.965Zm-1.674,1.674h1.674v1.674H14.291Zm0,3.349h1.674V17H14.291ZM15.965,17H17.64v1.674H15.965Zm-1.674,1.674h1.674v1.674H14.291Zm1.674,1.674H17.64V22.02H15.965ZM14.291,22.02h1.674v1.674H14.291Zm1.674,1.674H17.64v1.674H15.965Zm-1.674,1.674h1.674v1.674H14.291Zm1.674,1.674H17.64v1.674H15.965Zm11.72-11.72H29.36V17H27.686Zm-23.441,0H5.919V17H4.245Zm1.674-1.674H7.594v1.674H5.919Zm-3.349,0H4.245v1.674H2.571Zm6.7,0h1.674v1.674H9.268Zm1.674,1.674h1.674V17H10.942Zm1.674-1.674h1.674v1.674H12.617Zm5.023,1.674h1.674V17H17.64Zm1.674-1.674h1.674v1.674H19.314Zm1.674,1.674h1.674V17H20.989Zm1.674-1.674h1.674v1.674H22.663Zm1.674,1.674h1.674V17H24.337Zm1.674-1.674h1.674v1.674H26.012Zm1.674,5.023H29.36v1.674H27.686Zm-10.046,0h1.674v1.674H17.64ZM19.314,17h1.674v1.674H19.314Zm1.674,1.674h1.674v1.674H20.989Zm3.349,0h1.674v1.674H24.337ZM26.012,17h1.674v1.674H26.012Zm1.674,5.023H29.36v1.674H27.686Zm-10.046,0h1.674v1.674H17.64Zm1.674-1.674h1.674V22.02H19.314Zm3.349,0h1.674V22.02H22.663Zm1.674,1.674h1.674v1.674H24.337Zm1.674-1.674h1.674V22.02H26.012Zm1.674,5.023H29.36v1.674H27.686Zm-8.372-1.674h1.674v1.674H19.314Zm1.674,1.674h1.674v1.674H20.989Zm1.674-1.674h1.674v1.674H22.663Zm1.674,1.674h1.674v1.674H24.337Zm-5.023,1.674h1.674v1.674H19.314Zm3.349,0h1.674v1.674H22.663Zm3.349,0h1.674v1.674H26.012Z" transform="translate(-2.571 -1.928)" fill="#fff"/>
</svg>
