<svg xmlns="http://www.w3.org/2000/svg" width="25" height="25" viewBox="0 0 25 25"><path d="M8.516,231.519a6.273,6.273,0,0,0-6.264,6.264v12.473a6.273,6.273,0,0,0,6.264,6.264H20.989a6.273,6.273,0,0,0,6.264-6.264V237.783a6.273,6.273,0,0,0-6.264-6.264Zm0,2.093H20.989a4.139,4.139,0,0,1,4.171,4.171v12.473a4.139,4.139,0,0,1-4.171,4.171H8.516a4.139,4.139,0,0,1-4.171-4.171V237.783A4.139,4.139,0,0,1,8.516,233.612ZM15,236.8a1.046,1.046,0,0,0-1.031,1.06V242.9H8.926a1.046,1.046,0,1,0,0,2.092h5.041v5.041a1.046,1.046,0,1,0,2.093,0V245H21.1a1.046,1.046,0,1,0,0-2.092H16.06v-5.042A1.046,1.046,0,0,0,15,236.8Z" transform="translate(-2.253 -231.519)" fill="#fff"/></svg>