<svg width="25" height="25" viewBox="0 0 25 25" fill="none" xmlns="http://www.w3.org/2000/svg">
<g clip-path="url(#clip0_1378_238)">
<path d="M16.1666 6.25016V6.75016H16.6666H20.8333C21.7134 6.75016 22.4166 7.45339 22.4166 8.3335V19.7918C22.4166 20.6719 21.7134 21.3752 20.8333 21.3752H4.16665C3.28661 21.3752 2.58342 20.6721 2.58331 19.792C2.58331 19.792 2.58331 19.7919 2.58331 19.7918L2.59373 8.33395V8.3335C2.59373 7.45011 3.28981 6.75016 4.16665 6.75016H8.33331H8.83331V6.25016V4.16683C8.83331 3.28672 9.53654 2.5835 10.4166 2.5835H14.5833C15.4634 2.5835 16.1666 3.28672 16.1666 4.16683V6.25016ZM14.5833 6.75016H15.0833V6.25016V4.16683V3.66683H14.5833H10.4166H9.91665V4.16683V6.25016V6.75016H10.4166H14.5833Z" stroke="black"/>
</g>
<defs>
<clipPath id="clip0_1378_238">
<rect width="25" height="25" fill="white"/>
</clipPath>
</defs>
</svg>
