<svg width="25" height="25" viewBox="0 0 25 25" fill="none" xmlns="http://www.w3.org/2000/svg">
<g clip-path="url(#clip0_1378_668)">
<path d="M16.1666 6.25V6.75H16.6666H20.8333C21.7134 6.75 22.4166 7.45322 22.4166 8.33333V19.7917C22.4166 20.6718 21.7134 21.375 20.8333 21.375H4.16659C3.28655 21.375 2.58336 20.6719 2.58325 19.7919C2.58325 19.7918 2.58325 19.7917 2.58325 19.7917L2.59367 8.33378V8.33333C2.59367 7.44994 3.28975 6.75 4.16659 6.75H8.33325H8.83325V6.25V4.16666C8.83325 3.28655 9.53648 2.58333 10.4166 2.58333H14.5833C15.4634 2.58333 16.1666 3.28655 16.1666 4.16666V6.25ZM14.5833 6.75H15.0833V6.25V4.16666V3.66666H14.5833H10.4166H9.91658V4.16666V6.25V6.75H10.4166H14.5833Z" fill="black" stroke="black"/>
</g>
<defs>
<clipPath id="clip0_1378_668">
<rect width="25" height="25" fill="white"/>
</clipPath>
</defs>
</svg>
