<svg id="Layer_1" data-name="Layer 1" xmlns="http://www.w3.org/2000/svg" viewBox="0 0 100 100"><defs><style>.cls-1{fill:#0095da;}.cls-2{fill:#f7941d;}.cls-3{fill:#fff;}</style></defs><rect class="cls-1" x="0.06" y="0.14" width="100.04" height="50"/><rect class="cls-2" x="0.06" y="49.94" width="100.04" height="50"/><path class="cls-3" d="M79.54,44.34a18.29,18.29,0,0,0,3.54-4.86,21.25,21.25,0,0,0,2.13-9.58c0-7.26-2.32-12.87-6.9-16.67s-11-5.57-19.4-5.57H11.4A2.28,2.28,0,0,0,9.12,9.94V68.52a2.33,2.33,0,0,0,2.33,2.33h9.87a2.33,2.33,0,0,0,2.33-2.33V53.08h0V39.29h0V21.44H59.79c3.77,0,6.56.76,8.28,2.27s2.46,3.66,2.46,6.77c0,2.91-.84,5-2.55,6.5s-4.55,2.31-8.19,2.31H33.69a2.34,2.34,0,0,0-2.33,2.34v9.12a2.33,2.33,0,0,0,2.33,2.33H63.42c4,0,6.94,1.1,9.13,3.37s3.29,5.35,3.29,9.37-1.07,7.14-3.28,9.4-5.18,3.34-9.14,3.34h-52a2.33,2.33,0,0,0-2.33,2.33v9.18a2.28,2.28,0,0,0,2.28,2.28H61.46c8.88,0,16.06-2.38,21.34-7.07S90.88,74,90.88,66a25.58,25.58,0,0,0-3.6-13.53A27.61,27.61,0,0,0,79.54,44.34Z"/><circle class="cls-3" cx="59.84" cy="65.46" r="9.14"/></svg>