<svg width="18" height="18" viewBox="0 0 18 18" fill="none" xmlns="http://www.w3.org/2000/svg">
<path d="M10.2016 16.1913H2.3135C2.15257 16.1913 1.99824 16.1274 1.88444 16.0136C1.77065 15.8998 1.70672 15.7454 1.70672 15.5845V2.23537C1.70672 2.07445 1.77065 1.92011 1.88444 1.80632C1.99824 1.69252 2.15257 1.6286 2.3135 1.6286H10.2016C10.3625 1.6286 10.5169 1.56467 10.6307 1.45087C10.7445 1.33708 10.8084 1.18275 10.8084 1.02182C10.8084 0.86089 10.7445 0.706553 10.6307 0.59276C10.5169 0.478967 10.3625 0.415039 10.2016 0.415039H2.3135C1.83072 0.415039 1.36771 0.606824 1.02633 0.948203C0.684949 1.28958 0.493164 1.75259 0.493164 2.23537V15.5845C0.493164 16.0673 0.684949 16.5303 1.02633 16.8717C1.36771 17.2131 1.83072 17.4048 2.3135 17.4048H10.2016C10.3625 17.4048 10.5169 17.3409 10.6307 17.2271C10.7445 17.1133 10.8084 16.959 10.8084 16.7981C10.8084 16.6371 10.7445 16.4828 10.6307 16.369C10.5169 16.2552 10.3625 16.1913 10.2016 16.1913Z" fill="#fff"/>
<path d="M17.3076 8.47929L13.0601 4.23184C12.9441 4.13244 12.7948 4.08049 12.642 4.08639C12.4893 4.09229 12.3445 4.15559 12.2364 4.26366C12.1283 4.37172 12.065 4.51658 12.0591 4.6693C12.0532 4.82201 12.1052 4.97132 12.2046 5.0874L15.4144 8.30332H5.34799C5.18706 8.30332 5.03273 8.36725 4.91893 8.48105C4.80514 8.59484 4.74121 8.74918 4.74121 8.9101C4.74121 9.07103 4.80514 9.22537 4.91893 9.33916C5.03273 9.45295 5.18706 9.51688 5.34799 9.51688H15.4205L12.2107 12.7267C12.1471 12.7811 12.0955 12.8481 12.0591 12.9234C12.0227 12.9986 12.0022 13.0806 11.999 13.1642C11.9958 13.2478 12.0099 13.3311 12.0404 13.409C12.0709 13.4868 12.1171 13.5575 12.1763 13.6167C12.2354 13.6758 12.3061 13.7221 12.384 13.7526C12.4619 13.7831 12.5452 13.7972 12.6288 13.7939C12.7123 13.7907 12.7943 13.7702 12.8696 13.7338C12.9449 13.6974 13.0118 13.6458 13.0662 13.5823L17.3137 9.33485C17.4259 9.22036 17.4882 9.06612 17.4871 8.90582C17.4859 8.74551 17.4214 8.59217 17.3076 8.47929Z" fill="#fff"/>
</svg>
