<svg xmlns="http://www.w3.org/2000/svg" width="40" height="40" viewBox="0 0 40 40"><circle cx="20" cy="20" r="20" fill="#4b79d8"/><g transform="translate(-43.878 5.5)"><path d="M205.351,0a2.813,2.813,0,0,0-2.813,2.813,2.8,2.8,0,0,0,.037.4.563.563,0,0,0,.563.482.575.575,0,0,0,.159-.023,7.259,7.259,0,0,1,4.119,0,.576.576,0,0,0,.465-.084.6.6,0,0,0,.255-.409,2.545,2.545,0,0,0,.034-.369A2.813,2.813,0,0,0,205.355,0Z" transform="translate(-141.172 0)" fill="#f57c00"/><path d="M188.517,426.667h-6.75a.563.563,0,0,0-.563.563,3.938,3.938,0,1,0,7.875,0A.562.562,0,0,0,188.517,426.667Z" transform="translate(-120.963 -404.166)" fill="#ffa000"/><path d="M74.665,61.124c-.178-.393-.4-.831-.649-1.315a18.315,18.315,0,0,1-2.525-8.483c0-4.459-2.363-7.73-6.017-8.334a7.192,7.192,0,0,0-5.92,1.726,7.9,7.9,0,0,0-2.7,6.21,17.963,17.963,0,0,1-2.511,8.9c-.242.477-.462.911-.638,1.3a2.223,2.223,0,0,0,2.035,3.141H72.634a2.223,2.223,0,0,0,2.032-3.14h0Z" transform="translate(0 -40.638)" fill="#ffc107"/><path d="M103.538,102.209a.563.563,0,0,1-.5-.815l.181-.355a20.611,20.611,0,0,0,2.76-9.518c0-2.854,1.326-6.188,5.063-6.188a.563.563,0,1,1,0,1.125c-3.654,0-3.938,3.875-3.938,5.063a21.566,21.566,0,0,1-2.883,10.03l-.176.348A.563.563,0,0,1,103.538,102.209Z" transform="translate(-46.861 -80.834)" fill="#ffd54f"/></g></svg>