<svg xmlns="http://www.w3.org/2000/svg" width="28.825" height="24.763" viewBox="0 0 28.825 24.763"><circle cx="3.008" cy="3.008" r="3.008" transform="translate(11.404 10.607)" fill="#df3e3e"/><path d="M38.184,64.556H35.631a3.856,3.856,0,0,0-3.851,3.852V71.53l.008.048.215.067a17.531,17.531,0,0,0,5.237.845,10.764,10.764,0,0,0,4.572-.858l.2-.1h.021V68.407A3.854,3.854,0,0,0,38.184,64.556Z" transform="translate(-22.496 -47.727)" fill="#df3e3e"/><circle cx="4.853" cy="4.853" r="4.853" transform="translate(3.418 0)" fill="#df3e3e"/><path d="M58.592,16.658A4.853,4.853,0,1,0,53.74,11.8,4.853,4.853,0,0,0,58.592,16.658Z" transform="translate(-38.04 -6.952)" fill="#df3e3e"/><path d="M12.053,47.624a3.61,3.61,0,0,1,.564-5.878A6.168,6.168,0,0,0,10.33,41.3H6.213A6.22,6.22,0,0,0,0,47.517v5.037l.013.079.347.108A28.331,28.331,0,0,0,8.673,54.1V51.948A4.467,4.467,0,0,1,12.053,47.624Z" transform="translate(0 -31.268)" fill="#df3e3e"/><path d="M61.884,41.3H57.767a6.166,6.166,0,0,0-2.286.441,3.61,3.61,0,0,1,.565,5.878,4.459,4.459,0,0,1,3.379,4.326V54.1a28.336,28.336,0,0,0,8.314-1.36l.347-.108.013-.079V47.516A6.222,6.222,0,0,0,61.884,41.3Z" transform="translate(-39.273 -31.268)" fill="#df3e3e"/></svg>