<svg xmlns="http://www.w3.org/2000/svg" width="30" height="30" viewBox="0 0 30 30"><g transform="translate(-1 -1)"><path d="M16,1a14.946,14.946,0,0,0-5.217.933L11.218,3.1A13.8,13.8,0,1,1,7.25,5.4V9.75H8.5V3.5H2.25V4.75H6.079A15,15,0,1,0,16,1Z" fill="#4b79d8"/><circle cx="12" cy="12" r="12" transform="translate(4 4)" fill="#4b79d8"/><path d="M18.714,30.429H17v1.714H30.714V30.429H29V27.5l-3.931-3.931L29,19.641V16.714h1.714V15H17v1.714h1.714v2.926l3.931,3.931L18.714,27.5Zm1.714-11.5V16.714h6.857v2.217l-3.429,3.429Zm3.429,5.853,3.429,3.429v2.217H20.429V28.212l3.429-3.429Z" transform="translate(-7.714 -8.143)" fill="#fff"/><path d="M19,39h2v2H19Z" transform="translate(-7.043 -14.87)" fill="#fff"/><path d="M24,39h2v2H24Z" transform="translate(-9 -14.87)" fill="#fff"/><path d="M29,39h2v2H29Z" transform="translate(-10.957 -14.87)" fill="#fff"/></g></svg>