<svg xmlns="http://www.w3.org/2000/svg" width="38" height="38" viewBox="0 0 38 38"><g transform="translate(-17 -33.5)"><circle cx="19" cy="19" r="19" transform="translate(17 33.5)" fill="#fff"/><g transform="translate(3.835 43.07)"><g transform="translate(27.592)"><path d="M115.524,0a4.733,4.733,0,1,0,4.733,4.733A4.746,4.746,0,0,0,115.524,0Z" transform="translate(-110.791)" fill="#2751a7"/></g><g transform="translate(24.165 9.805)"><path d="M40.448,251.284a4.412,4.412,0,0,0-.475-.868,5.883,5.883,0,0,0-4.072-2.563.871.871,0,0,0-.6.145,5.045,5.045,0,0,1-5.953,0,.775.775,0,0,0-.6-.145,5.841,5.841,0,0,0-4.072,2.563,5.087,5.087,0,0,0-.475.868.439.439,0,0,0,.021.393,8.242,8.242,0,0,0,.558.827,7.853,7.853,0,0,0,.951,1.075,12.388,12.388,0,0,0,.951.827,9.426,9.426,0,0,0,11.244,0,9.09,9.09,0,0,0,.951-.827,9.542,9.542,0,0,0,.951-1.075,7.239,7.239,0,0,0,.558-.827A.353.353,0,0,0,40.448,251.284Z" transform="translate(-24.165 -247.841)" fill="#2751a7"/></g></g></g></svg>