<svg xmlns="http://www.w3.org/2000/svg" width="20" height="26.667" viewBox="0 0 20 26.667"><path d="M20,6.351v.316H13.333V0h.316a1.25,1.25,0,0,1,.884.366l5.1,5.1A1.25,1.25,0,0,1,20,6.351Zm-8.333.732V0H1.25A1.25,1.25,0,0,0,0,1.25V25.417a1.25,1.25,0,0,0,1.25,1.25h17.5A1.25,1.25,0,0,0,20,25.417V8.333H12.917A1.254,1.254,0,0,1,11.667,7.083Zm5,7.5v5.831a1.251,1.251,0,0,1-2.134.884l-2.866-2.865v1.982a1.25,1.25,0,0,1-1.25,1.25H4.583a1.25,1.25,0,0,1-1.25-1.25V14.583a1.25,1.25,0,0,1,1.25-1.25h5.833a1.25,1.25,0,0,1,1.25,1.25v1.982L14.533,13.7A1.251,1.251,0,0,1,16.667,14.584Z" fill="#df3e3e"/></svg>