<svg xmlns="http://www.w3.org/2000/svg" width="56" height="56" viewBox="0 0 56 56"><g transform="translate(0 -0.5)"><g transform="translate(0 0.5)"><g transform="translate(0)" fill="#ffc003" stroke="#fff" stroke-miterlimit="10" stroke-width="4"><circle cx="28" cy="28" r="28" stroke="none"/><circle cx="28" cy="28" r="26" fill="none"/></g><g transform="translate(0)" fill="none" stroke="#707070" stroke-miterlimit="10" stroke-width="0.5"><circle cx="28" cy="28" r="28" stroke="none"/><circle cx="28" cy="28" r="27.75" fill="none"/></g></g><g transform="translate(16 16)"><path d="M24,0H0V24H24Z" fill="none"/><g transform="translate(1.001 1.497)"><path d="M127.627,5.98h5.81V0H127v5.35A.628.628,0,0,0,127.627,5.98Z" transform="translate(-121.693 0)" fill="#fff"/><path d="M312.421,5.353V0H311V5.98h.794A.628.628,0,0,0,312.421,5.353Z" transform="translate(-298.002 0)" fill="#fff"/><path d="M127,357.732h9.112V351H127Z" transform="translate(-121.693 -336.329)" fill="#fff"/><path d="M21.4,5.292a.628.628,0,0,0-.139-.336c-.031-.038.288.284-4.765-4.77A.632.632,0,0,0,16.049,0h-.376v5.35a1.883,1.883,0,0,1-1.881,1.881H5.934A1.883,1.883,0,0,1,4.053,5.353V0H1.88A1.883,1.883,0,0,0,0,1.884V19.522A1.883,1.883,0,0,0,1.88,21.4H4.053V12.626a1.883,1.883,0,0,1,1.881-1.881h7.858a1.883,1.883,0,0,1,1.881,1.881V21.4h3.845A1.883,1.883,0,0,0,21.4,19.522c0-15.222,0-14.182,0-14.23Z" transform="translate(0 0)" fill="#fff"/><path d="M135.485,287h-7.858a.628.628,0,0,0-.627.627v.794h9.112v-.794A.628.628,0,0,0,135.485,287Z" transform="translate(-121.693 -275.004)" fill="#fff"/></g></g></g></svg>