<svg width="18" height="18" viewBox="0 0 18 18" fill="none" xmlns="http://www.w3.org/2000/svg">
<path d="M17.8383 17.0577L12.601 11.82C15.0137 9.00541 14.8858 4.74922 12.2182 2.08988C10.8667 0.742425 9.0709 0 7.16183 0C5.24415 0 3.44265 0.747727 2.08866 2.10578C0.738195 3.46009 -0.00374078 5.26037 1.41834e-05 7.1742C0.00354826 9.08803 0.75189 10.8854 2.10677 12.2349C3.45745 13.5832 5.25276 14.3256 7.16183 14.3256C8.89044 14.3256 10.5234 13.716 11.8206 12.6011L17.0575 17.8383C17.1653 17.9461 17.3066 18 17.448 18C17.5894 18 17.7305 17.9461 17.8385 17.8383C18.0539 17.6229 18.0539 17.2735 17.8383 17.0577ZM2.88647 11.4529C1.74033 10.3113 1.10707 8.79092 1.10441 7.17221C1.10132 5.5535 1.72862 4.03088 2.87079 2.88554C4.01606 1.73711 5.53969 1.10447 7.16183 1.10447C8.77646 1.10447 10.2952 1.73225 11.4385 2.87207C13.8037 5.23033 13.8101 9.07345 11.4531 11.4394C10.3078 12.5883 8.78375 13.2212 7.16161 13.2212C5.54742 13.2214 4.02931 12.5936 2.88647 11.4529Z" fill="#767676"/>
</svg>
