<svg xmlns="http://www.w3.org/2000/svg" width="25" height="25" viewBox="0 0 25 25"><path d="M25.368,17.125a7.817,7.817,0,0,0,.064-1.25c0-.438-.064-.812-.064-1.25l2.684-2.062a.574.574,0,0,0,.128-.812L25.624,7.438a.623.623,0,0,0-.767-.25l-3.2,1.25a9.3,9.3,0,0,0-2.173-1.25l-.448-3.312a.685.685,0,0,0-.639-.5H13.286a.685.685,0,0,0-.639.5l-.511,3.312a10.825,10.825,0,0,0-2.174,1.25l-3.2-1.25A.6.6,0,0,0,6,7.438L3.441,11.75a.755.755,0,0,0,.128.812l2.749,2.062c0,.438-.064.812-.064,1.25s.064.812.064,1.25L3.634,19.187A.574.574,0,0,0,3.506,20l2.557,4.313a.623.623,0,0,0,.767.25l3.2-1.25a9.3,9.3,0,0,0,2.173,1.25l.511,3.312a.62.62,0,0,0,.639.5h5.114a.685.685,0,0,0,.639-.5l.512-3.312a10.819,10.819,0,0,0,2.173-1.25l3.2,1.25a.6.6,0,0,0,.767-.25L28.309,20a.754.754,0,0,0-.128-.812ZM15.843,20.25a4.376,4.376,0,1,1,4.475-4.375A4.4,4.4,0,0,1,15.843,20.25Z" transform="translate(-3.375 -3.375)" fill="#fff"/></svg>