<svg xmlns="http://www.w3.org/2000/svg" width="19.971" height="24" viewBox="0 0 19.971 24"><g transform="translate(-41 -0.096)"><ellipse cx="4.5" cy="4" rx="4.5" ry="4" transform="translate(46.377 0.096)" fill="#4eaf47"/><path d="M147.488,181.515a5.33,5.33,0,0,1-5.8,0,8.12,8.12,0,0,0-2.526,1.543l5.426,2.035,5.427-2.035a8.119,8.119,0,0,0-2.526-1.543Z" transform="translate(-93.602 -172.768)" fill="#4eaf47"/><path d="M412.161,310H411.7a.7.7,0,0,0-.7.7v1.858a.7.7,0,0,0,.7.7h.464a1.626,1.626,0,1,0,0-3.251Z" transform="translate(-352.816 -295.286)" fill="#4eaf47"/><path d="M81.3,231.728a.7.7,0,0,0-.3.573v1.551h.232a2.092,2.092,0,0,1,2.09,2.09V237.8a2.092,2.092,0,0,1-2.09,2.09H81v1.468a.7.7,0,0,0,.452.652l6.979,2.617V234.082l-6.49-2.434A.7.7,0,0,0,81.3,231.728Z" transform="translate(-38.142 -220.531)" fill="#4eaf47"/><path d="M276.109,237.8v-1.858a2.092,2.092,0,0,1,2.09-2.09h.232V232.3a.7.7,0,0,0-.941-.652L271,234.082v10.545l6.979-2.617a.7.7,0,0,0,.452-.652v-1.468H278.2A2.092,2.092,0,0,1,276.109,237.8Z" transform="translate(-219.318 -220.53)" fill="#4eaf47"/><path d="M43.787,312.554V310.7a.7.7,0,0,0-.7-.7h-.464a1.626,1.626,0,0,0,0,3.251h.464A.7.7,0,0,0,43.787,312.554Z" transform="translate(0 -295.286)" fill="#4eaf47"/></g></svg>