<svg xmlns="http://www.w3.org/2000/svg" width="16.298" height="18.485" viewBox="0 0 16.298 18.485"><path d="M62.342,359.044l-.037,0a3.442,3.442,0,0,1-.827-.153l-1.837,3.18a.6.6,0,0,0,.228.829l1.808,1.014a.6.6,0,0,0,.819-.225l2.682-4.643Z" transform="translate(-57.163 -345.504)" fill="#fff"/><g transform="translate(0 0)"><path d="M251.92,26.514l-5.456,3.34v9.619l5.463,3.245a.6.6,0,0,0,.913-.519V27.029A.6.6,0,0,0,251.92,26.514Z" transform="translate(-236.542 -26.424)" fill="#fff"/><g transform="translate(0 4.166)"><path d="M1.954,167.189v-4.057a3.245,3.245,0,0,1,.072-.677H1.147A1.147,1.147,0,0,0,0,163.6v3.118a1.147,1.147,0,0,0,1.147,1.147h.878A3.264,3.264,0,0,1,1.954,167.189Z" transform="translate(0 -161.145)" fill="#fff"/><path d="M84.092,138.077h-3.5a2.16,2.16,0,0,1-2.053-2.122V131.9a1.954,1.954,0,0,1,2.053-1.984h3.5Z" transform="translate(-75.378 -129.912)" fill="#fff"/></g></g></svg>