<svg width="20" height="20" viewBox="0 0 20 20" fill="none" xmlns="http://www.w3.org/2000/svg">
<g clip-path="url(#clip0_1624_512)">
<path d="M15.125 5.625C15.125 8.45433 12.8293 10.75 10 10.75C7.17067 10.75 4.875 8.45433 4.875 5.625C4.875 2.79567 7.17067 0.5 10 0.5C12.8293 0.5 15.125 2.79567 15.125 5.625ZM10 13.625C11.0512 13.625 12.0515 13.3989 12.955 13H15C17.4856 13 19.5 15.0144 19.5 17.5V18.125C19.5 18.884 18.884 19.5 18.125 19.5H1.875C1.11599 19.5 0.5 18.884 0.5 18.125V17.5C0.5 15.0144 2.51442 13 5 13H7.04536C7.95154 13.3986 8.94814 13.625 10 13.625Z" fill="black" stroke="black"/>
</g>
<defs>
<clipPath id="clip0_1624_512">
<rect width="20" height="20" fill="white"/>
</clipPath>
</defs>
</svg>
